<?xml version="1.0" encoding="UTF-8" standalone="no"?>
<!DOCTYPE svg PUBLIC "-//W3C//DTD SVG 1.1//EN"
 "http://www.w3.org/Graphics/SVG/1.1/DTD/svg11.dtd">
<!-- Generated by graphviz version 9.0.0 (0)
 -->
<!-- Pages: 1 -->
<svg width="362pt" height="486pt"
 viewBox="0.00 0.00 361.98 486.27" xmlns="http://www.w3.org/2000/svg" xmlns:xlink="http://www.w3.org/1999/xlink">
<g id="graph0" class="graph" transform="scale(1 1) rotate(0) translate(4 482.27)">
<polygon fill="white" stroke="none" points="-4,4 -4,-482.27 357.98,-482.27 357.98,4 -4,4"/>
<g id="clust1" class="cluster">
<title>cluster6</title>
<path fill="none" stroke="black" d="M26,-247.13C26,-247.13 100,-247.13 100,-247.13 106,-247.13 112,-253.13 112,-259.13 112,-259.13 112,-356.95 112,-356.95 112,-362.95 106,-368.95 100,-368.95 100,-368.95 26,-368.95 26,-368.95 20,-368.95 14,-362.95 14,-356.95 14,-356.95 14,-259.13 14,-259.13 14,-253.13 20,-247.13 26,-247.13"/>
<text text-anchor="middle" x="100.62" y="-254.33" font-family="Times,serif" font-size="14.00">6</text>
</g>
<g id="clust2" class="cluster">
<title>cluster84</title>
<path fill="none" stroke="black" d="M20,-8C20,-8 102,-8 102,-8 108,-8 114,-14 114,-20 114,-20 114,-223.23 114,-223.23 114,-229.23 108,-235.23 102,-235.23 102,-235.23 20,-235.23 20,-235.23 14,-235.23 8,-229.23 8,-223.23 8,-223.23 8,-20 8,-20 8,-14 14,-8 20,-8"/>
<text text-anchor="middle" x="99.25" y="-15.2" font-family="Times,serif" font-size="14.00">84</text>
</g>
<g id="clust3" class="cluster">
<title>cluster6 x 12</title>
<path fill="none" stroke="black" d="M136,-247.13C136,-247.13 210,-247.13 210,-247.13 216,-247.13 222,-253.13 222,-259.13 222,-259.13 222,-356.95 222,-356.95 222,-362.95 216,-368.95 210,-368.95 210,-368.95 136,-368.95 136,-368.95 130,-368.95 124,-362.95 124,-356.95 124,-356.95 124,-259.13 124,-259.13 124,-253.13 130,-247.13 136,-247.13"/>
<text text-anchor="middle" x="196.75" y="-254.33" font-family="Times,serif" font-size="14.00">6 x 12</text>
</g>
<g id="clust4" class="cluster">
<title>cluster7 x 12</title>
<path fill="none" stroke="black" d="M134,-137.23C134,-137.23 216,-137.23 216,-137.23 222,-137.23 228,-143.23 228,-149.23 228,-149.23 228,-223.23 228,-223.23 228,-229.23 222,-235.23 216,-235.23 216,-235.23 134,-235.23 134,-235.23 128,-235.23 122,-229.23 122,-223.23 122,-223.23 122,-149.23 122,-149.23 122,-143.23 128,-137.23 134,-137.23"/>
<text text-anchor="middle" x="202.75" y="-144.43" font-family="Times,serif" font-size="14.00">7 x 12</text>
</g>
<!-- τ -->
<g id="node1" class="node">
<title>τ</title>
<ellipse fill="none" stroke="black" cx="118" cy="-437.61" rx="57.45" ry="40.66"/>
<text text-anchor="middle" x="118" y="-449.06" font-family="Times,serif" font-size="14.00">τ</text>
<text text-anchor="middle" x="118" y="-432.56" font-family="Times,serif" font-size="14.00">~</text>
<text text-anchor="middle" x="118" y="-416.06" font-family="Times,serif" font-size="14.00">HalfCauchy</text>
</g>
<!-- β -->
<g id="node3" class="node">
<title>β</title>
<ellipse fill="none" stroke="black" cx="63" cy="-320.29" rx="41.01" ry="40.66"/>
<text text-anchor="middle" x="63" y="-331.74" font-family="Times,serif" font-size="14.00">β</text>
<text text-anchor="middle" x="63" y="-315.24" font-family="Times,serif" font-size="14.00">~</text>
<text text-anchor="middle" x="63" y="-298.74" font-family="Times,serif" font-size="14.00">Normal</text>
</g>
<!-- τ&#45;&gt;β -->
<g id="edge1" class="edge">
<title>τ&#45;&gt;β</title>
<path fill="none" stroke="black" d="M99.84,-398.53C95.1,-388.59 89.94,-377.77 85.02,-367.46"/>
<polygon fill="black" stroke="black" points="88.33,-366.26 80.86,-358.74 82.01,-369.28 88.33,-366.26"/>
</g>
<!-- βi -->
<g id="node6" class="node">
<title>βi</title>
<ellipse fill="none" stroke="black" cx="173" cy="-320.29" rx="41.01" ry="40.66"/>
<text text-anchor="middle" x="173" y="-331.74" font-family="Times,serif" font-size="14.00">βi</text>
<text text-anchor="middle" x="173" y="-315.24" font-family="Times,serif" font-size="14.00">~</text>
<text text-anchor="middle" x="173" y="-298.74" font-family="Times,serif" font-size="14.00">Normal</text>
</g>
<!-- τ&#45;&gt;βi -->
<g id="edge3" class="edge">
<title>τ&#45;&gt;βi</title>
<path fill="none" stroke="black" d="M136.16,-398.53C140.9,-388.59 146.06,-377.77 150.98,-367.46"/>
<polygon fill="black" stroke="black" points="153.99,-369.28 155.14,-358.74 147.67,-366.26 153.99,-369.28"/>
</g>
<!-- σ -->
<g id="node2" class="node">
<title>σ</title>
<ellipse fill="none" stroke="black" cx="296" cy="-198.48" rx="57.98" ry="40.66"/>
<text text-anchor="middle" x="296" y="-209.93" font-family="Times,serif" font-size="14.00">σ</text>
<text text-anchor="middle" x="296" y="-193.43" font-family="Times,serif" font-size="14.00">~</text>
<text text-anchor="middle" x="296" y="-176.93" font-family="Times,serif" font-size="14.00">HalfNormal</text>
</g>
<!-- up -->
<g id="node5" class="node">
<title>up</title>
<ellipse fill="lightgrey" stroke="black" cx="65" cy="-81.16" rx="41.01" ry="40.66"/>
<text text-anchor="middle" x="65" y="-92.61" font-family="Times,serif" font-size="14.00">up</text>
<text text-anchor="middle" x="65" y="-76.11" font-family="Times,serif" font-size="14.00">~</text>
<text text-anchor="middle" x="65" y="-59.61" font-family="Times,serif" font-size="14.00">Normal</text>
</g>
<!-- σ&#45;&gt;up -->
<g id="edge7" class="edge">
<title>σ&#45;&gt;up</title>
<path fill="none" stroke="black" d="M265.38,-163.5C255.47,-153.99 243.93,-144.33 232,-137.23 195.9,-115.74 150.36,-101.44 115.95,-92.81"/>
<polygon fill="black" stroke="black" points="117.22,-89.52 106.67,-90.56 115.57,-96.32 117.22,-89.52"/>
</g>
<!-- μg -->
<g id="node4" class="node">
<title>μg</title>
<polygon fill="none" stroke="black" points="106.12,-227.23 15.88,-227.23 15.88,-169.73 106.12,-169.73 106.12,-227.23"/>
<text text-anchor="middle" x="61" y="-209.93" font-family="Times,serif" font-size="14.00">μg</text>
<text text-anchor="middle" x="61" y="-193.43" font-family="Times,serif" font-size="14.00">~</text>
<text text-anchor="middle" x="61" y="-176.93" font-family="Times,serif" font-size="14.00">Deterministic</text>
</g>
<!-- β&#45;&gt;μg -->
<g id="edge2" class="edge">
<title>β&#45;&gt;μg</title>
<path fill="none" stroke="black" d="M62.33,-279.4C62.12,-266.37 61.88,-251.91 61.66,-238.91"/>
<polygon fill="black" stroke="black" points="65.16,-238.92 61.49,-228.98 58.16,-239.04 65.16,-238.92"/>
</g>
<!-- μg&#45;&gt;up -->
<g id="edge5" class="edge">
<title>μg&#45;&gt;up</title>
<path fill="none" stroke="black" d="M61.98,-169.27C62.35,-158.44 62.79,-145.73 63.22,-133.41"/>
<polygon fill="black" stroke="black" points="66.71,-133.9 63.56,-123.78 59.71,-133.66 66.71,-133.9"/>
</g>
<!-- μi -->
<g id="node7" class="node">
<title>μi</title>
<polygon fill="none" stroke="black" points="220.12,-227.23 129.88,-227.23 129.88,-169.73 220.12,-169.73 220.12,-227.23"/>
<text text-anchor="middle" x="175" y="-209.93" font-family="Times,serif" font-size="14.00">μi</text>
<text text-anchor="middle" x="175" y="-193.43" font-family="Times,serif" font-size="14.00">~</text>
<text text-anchor="middle" x="175" y="-176.93" font-family="Times,serif" font-size="14.00">Deterministic</text>
</g>
<!-- βi&#45;&gt;μi -->
<g id="edge4" class="edge">
<title>βi&#45;&gt;μi</title>
<path fill="none" stroke="black" d="M173.67,-279.4C173.88,-266.37 174.12,-251.91 174.34,-238.91"/>
<polygon fill="black" stroke="black" points="177.84,-239.04 174.51,-228.98 170.84,-238.92 177.84,-239.04"/>
</g>
<!-- μi&#45;&gt;up -->
<g id="edge6" class="edge">
<title>μi&#45;&gt;up</title>
<path fill="none" stroke="black" d="M148.37,-169.23C138.81,-159.12 127.94,-147.64 118,-137.23 112.46,-131.42 106.58,-125.28 100.82,-119.29"/>
<polygon fill="black" stroke="black" points="103.61,-117.14 94.15,-112.36 98.56,-121.99 103.61,-117.14"/>
</g>
</g>
</svg>
