<?xml version="1.0" encoding="UTF-8" standalone="no"?>
<!DOCTYPE svg PUBLIC "-//W3C//DTD SVG 1.1//EN"
 "http://www.w3.org/Graphics/SVG/1.1/DTD/svg11.dtd">
<!-- Generated by graphviz version 9.0.0 (0)
 -->
<!-- Pages: 1 -->
<svg width="248pt" height="487pt"
 viewBox="0.00 0.00 247.98 486.86" xmlns="http://www.w3.org/2000/svg" xmlns:xlink="http://www.w3.org/1999/xlink">
<g id="graph0" class="graph" transform="scale(1 1) rotate(0) translate(4 482.86)">
<polygon fill="white" stroke="none" points="-4,4 -4,-482.86 243.98,-482.86 243.98,4 -4,4"/>
<g id="clust1" class="cluster">
<title>cluster6 x 12</title>
<path fill="none" stroke="black" d="M24,-247.73C24,-247.73 98,-247.73 98,-247.73 104,-247.73 110,-253.73 110,-259.73 110,-259.73 110,-357.54 110,-357.54 110,-363.54 104,-369.54 98,-369.54 98,-369.54 24,-369.54 24,-369.54 18,-369.54 12,-363.54 12,-357.54 12,-357.54 12,-259.73 12,-259.73 12,-253.73 18,-247.73 24,-247.73"/>
<text text-anchor="middle" x="84.75" y="-254.93" font-family="Times,serif" font-size="14.00">6 x 12</text>
</g>
<g id="clust2" class="cluster">
<title>cluster7 x 12</title>
<path fill="none" stroke="black" d="M20,-137.82C20,-137.82 102,-137.82 102,-137.82 108,-137.82 114,-143.82 114,-149.82 114,-149.82 114,-223.82 114,-223.82 114,-229.82 108,-235.82 102,-235.82 102,-235.82 20,-235.82 20,-235.82 14,-235.82 8,-229.82 8,-223.82 8,-223.82 8,-149.82 8,-149.82 8,-143.82 14,-137.82 20,-137.82"/>
<text text-anchor="middle" x="88.75" y="-145.02" font-family="Times,serif" font-size="14.00">7 x 12</text>
</g>
<g id="clust3" class="cluster">
<title>cluster84</title>
<path fill="none" stroke="black" d="M26,-8C26,-8 100,-8 100,-8 106,-8 112,-14 112,-20 112,-20 112,-117.82 112,-117.82 112,-123.82 106,-129.82 100,-129.82 100,-129.82 26,-129.82 26,-129.82 20,-129.82 14,-123.82 14,-117.82 14,-117.82 14,-20 14,-20 14,-14 20,-8 26,-8"/>
<text text-anchor="middle" x="97.25" y="-15.2" font-family="Times,serif" font-size="14.00">84</text>
</g>
<!-- τ -->
<g id="node1" class="node">
<title>τ</title>
<ellipse fill="none" stroke="black" cx="61" cy="-438.2" rx="57.45" ry="40.66"/>
<text text-anchor="middle" x="61" y="-449.65" font-family="Times,serif" font-size="14.00">τ</text>
<text text-anchor="middle" x="61" y="-433.15" font-family="Times,serif" font-size="14.00">~</text>
<text text-anchor="middle" x="61" y="-416.65" font-family="Times,serif" font-size="14.00">HalfCauchy</text>
</g>
<!-- βi -->
<g id="node3" class="node">
<title>βi</title>
<ellipse fill="none" stroke="black" cx="61" cy="-320.88" rx="41.01" ry="40.66"/>
<text text-anchor="middle" x="61" y="-332.33" font-family="Times,serif" font-size="14.00">βi</text>
<text text-anchor="middle" x="61" y="-315.83" font-family="Times,serif" font-size="14.00">~</text>
<text text-anchor="middle" x="61" y="-299.33" font-family="Times,serif" font-size="14.00">Normal</text>
</g>
<!-- τ&#45;&gt;βi -->
<g id="edge1" class="edge">
<title>τ&#45;&gt;βi</title>
<path fill="none" stroke="black" d="M61,-397.19C61,-389.41 61,-381.15 61,-373.07"/>
<polygon fill="black" stroke="black" points="64.5,-373.34 61,-363.34 57.5,-373.34 64.5,-373.34"/>
</g>
<!-- σ -->
<g id="node2" class="node">
<title>σ</title>
<ellipse fill="none" stroke="black" cx="182" cy="-199.07" rx="57.98" ry="40.66"/>
<text text-anchor="middle" x="182" y="-210.52" font-family="Times,serif" font-size="14.00">σ</text>
<text text-anchor="middle" x="182" y="-194.02" font-family="Times,serif" font-size="14.00">~</text>
<text text-anchor="middle" x="182" y="-177.52" font-family="Times,serif" font-size="14.00">HalfNormal</text>
</g>
<!-- up -->
<g id="node5" class="node">
<title>up</title>
<ellipse fill="lightgrey" stroke="black" cx="63" cy="-81.16" rx="41.01" ry="40.66"/>
<text text-anchor="middle" x="63" y="-92.61" font-family="Times,serif" font-size="14.00">up</text>
<text text-anchor="middle" x="63" y="-76.11" font-family="Times,serif" font-size="14.00">~</text>
<text text-anchor="middle" x="63" y="-59.61" font-family="Times,serif" font-size="14.00">Normal</text>
</g>
<!-- σ&#45;&gt;up -->
<g id="edge4" class="edge">
<title>σ&#45;&gt;up</title>
<path fill="none" stroke="black" d="M148.54,-165.47C133.31,-150.65 115.26,-133.06 99.67,-117.88"/>
<polygon fill="black" stroke="black" points="102.47,-115.71 92.86,-111.24 97.58,-120.73 102.47,-115.71"/>
</g>
<!-- μi -->
<g id="node4" class="node">
<title>μi</title>
<polygon fill="none" stroke="black" points="106.12,-227.82 15.88,-227.82 15.88,-170.32 106.12,-170.32 106.12,-227.82"/>
<text text-anchor="middle" x="61" y="-210.52" font-family="Times,serif" font-size="14.00">μi</text>
<text text-anchor="middle" x="61" y="-194.02" font-family="Times,serif" font-size="14.00">~</text>
<text text-anchor="middle" x="61" y="-177.52" font-family="Times,serif" font-size="14.00">Deterministic</text>
</g>
<!-- βi&#45;&gt;μi -->
<g id="edge2" class="edge">
<title>βi&#45;&gt;μi</title>
<path fill="none" stroke="black" d="M61,-279.99C61,-266.96 61,-252.5 61,-239.5"/>
<polygon fill="black" stroke="black" points="64.5,-239.58 61,-229.58 57.5,-239.58 64.5,-239.58"/>
</g>
<!-- μi&#45;&gt;up -->
<g id="edge3" class="edge">
<title>μi&#45;&gt;up</title>
<path fill="none" stroke="black" d="M61.48,-170.01C61.67,-159.03 61.9,-146.08 62.11,-133.55"/>
<polygon fill="black" stroke="black" points="65.61,-133.8 62.28,-123.74 58.61,-133.68 65.61,-133.8"/>
</g>
</g>
</svg>
