<?xml version="1.0" encoding="UTF-8" standalone="no"?>
<!DOCTYPE svg PUBLIC "-//W3C//DTD SVG 1.1//EN"
 "http://www.w3.org/Graphics/SVG/1.1/DTD/svg11.dtd">
<!-- Generated by graphviz version 9.0.0 (0)
 -->
<!-- Pages: 1 -->
<svg width="248pt" height="486pt"
 viewBox="0.00 0.00 247.98 486.27" xmlns="http://www.w3.org/2000/svg" xmlns:xlink="http://www.w3.org/1999/xlink">
<g id="graph0" class="graph" transform="scale(1 1) rotate(0) translate(4 482.27)">
<polygon fill="white" stroke="none" points="-4,4 -4,-482.27 243.98,-482.27 243.98,4 -4,4"/>
<g id="clust1" class="cluster">
<title>cluster8</title>
<path fill="none" stroke="black" d="M24,-247.13C24,-247.13 98,-247.13 98,-247.13 104,-247.13 110,-253.13 110,-259.13 110,-259.13 110,-356.95 110,-356.95 110,-362.95 104,-368.95 98,-368.95 98,-368.95 24,-368.95 24,-368.95 18,-368.95 12,-362.95 12,-356.95 12,-356.95 12,-259.13 12,-259.13 12,-253.13 18,-247.13 24,-247.13"/>
<text text-anchor="middle" x="98.62" y="-254.33" font-family="Times,serif" font-size="14.00">8</text>
</g>
<g id="clust2" class="cluster">
<title>cluster348</title>
<path fill="none" stroke="black" d="M20,-8C20,-8 102,-8 102,-8 108,-8 114,-14 114,-20 114,-20 114,-223.23 114,-223.23 114,-229.23 108,-235.23 102,-235.23 102,-235.23 20,-235.23 20,-235.23 14,-235.23 8,-229.23 8,-223.23 8,-223.23 8,-20 8,-20 8,-14 14,-8 20,-8"/>
<text text-anchor="middle" x="95.88" y="-15.2" font-family="Times,serif" font-size="14.00">348</text>
</g>
<!-- τ -->
<g id="node1" class="node">
<title>τ</title>
<ellipse fill="none" stroke="black" cx="61" cy="-437.61" rx="57.45" ry="40.66"/>
<text text-anchor="middle" x="61" y="-449.06" font-family="Times,serif" font-size="14.00">τ</text>
<text text-anchor="middle" x="61" y="-432.56" font-family="Times,serif" font-size="14.00">~</text>
<text text-anchor="middle" x="61" y="-416.06" font-family="Times,serif" font-size="14.00">HalfCauchy</text>
</g>
<!-- β -->
<g id="node3" class="node">
<title>β</title>
<ellipse fill="none" stroke="black" cx="61" cy="-320.29" rx="41.01" ry="40.66"/>
<text text-anchor="middle" x="61" y="-331.74" font-family="Times,serif" font-size="14.00">β</text>
<text text-anchor="middle" x="61" y="-315.24" font-family="Times,serif" font-size="14.00">~</text>
<text text-anchor="middle" x="61" y="-298.74" font-family="Times,serif" font-size="14.00">Normal</text>
</g>
<!-- τ&#45;&gt;β -->
<g id="edge1" class="edge">
<title>τ&#45;&gt;β</title>
<path fill="none" stroke="black" d="M61,-396.6C61,-388.82 61,-380.56 61,-372.48"/>
<polygon fill="black" stroke="black" points="64.5,-372.74 61,-362.74 57.5,-372.74 64.5,-372.74"/>
</g>
<!-- σ -->
<g id="node2" class="node">
<title>σ</title>
<ellipse fill="none" stroke="black" cx="182" cy="-198.48" rx="57.98" ry="40.66"/>
<text text-anchor="middle" x="182" y="-209.93" font-family="Times,serif" font-size="14.00">σ</text>
<text text-anchor="middle" x="182" y="-193.43" font-family="Times,serif" font-size="14.00">~</text>
<text text-anchor="middle" x="182" y="-176.93" font-family="Times,serif" font-size="14.00">HalfNormal</text>
</g>
<!-- c -->
<g id="node4" class="node">
<title>c</title>
<ellipse fill="lightgrey" stroke="black" cx="63" cy="-81.16" rx="41.01" ry="40.66"/>
<text text-anchor="middle" x="63" y="-92.61" font-family="Times,serif" font-size="14.00">c</text>
<text text-anchor="middle" x="63" y="-76.11" font-family="Times,serif" font-size="14.00">~</text>
<text text-anchor="middle" x="63" y="-59.61" font-family="Times,serif" font-size="14.00">Normal</text>
</g>
<!-- σ&#45;&gt;c -->
<g id="edge4" class="edge">
<title>σ&#45;&gt;c</title>
<path fill="none" stroke="black" d="M148.54,-165.05C133.43,-150.41 115.54,-133.07 100.03,-118.05"/>
<polygon fill="black" stroke="black" points="102.88,-115.93 93.26,-111.48 98,-120.95 102.88,-115.93"/>
</g>
<!-- μ -->
<g id="node5" class="node">
<title>μ</title>
<polygon fill="none" stroke="black" points="106.12,-227.23 15.88,-227.23 15.88,-169.73 106.12,-169.73 106.12,-227.23"/>
<text text-anchor="middle" x="61" y="-209.93" font-family="Times,serif" font-size="14.00">μ</text>
<text text-anchor="middle" x="61" y="-193.43" font-family="Times,serif" font-size="14.00">~</text>
<text text-anchor="middle" x="61" y="-176.93" font-family="Times,serif" font-size="14.00">Deterministic</text>
</g>
<!-- β&#45;&gt;μ -->
<g id="edge2" class="edge">
<title>β&#45;&gt;μ</title>
<path fill="none" stroke="black" d="M61,-279.4C61,-266.37 61,-251.91 61,-238.91"/>
<polygon fill="black" stroke="black" points="64.5,-238.98 61,-228.98 57.5,-238.98 64.5,-238.98"/>
</g>
<!-- μ&#45;&gt;c -->
<g id="edge3" class="edge">
<title>μ&#45;&gt;c</title>
<path fill="none" stroke="black" d="M61.49,-169.27C61.68,-158.44 61.9,-145.73 62.11,-133.41"/>
<polygon fill="black" stroke="black" points="65.6,-133.84 62.28,-123.78 58.61,-133.72 65.6,-133.84"/>
</g>
</g>
</svg>
