<?xml version="1.0" encoding="UTF-8" standalone="no"?>
<!DOCTYPE svg PUBLIC "-//W3C//DTD SVG 1.1//EN"
 "http://www.w3.org/Graphics/SVG/1.1/DTD/svg11.dtd">
<!-- Generated by graphviz version 9.0.0 (0)
 -->
<!-- Pages: 1 -->
<svg width="252pt" height="263pt"
 viewBox="0.00 0.00 251.98 263.13" xmlns="http://www.w3.org/2000/svg" xmlns:xlink="http://www.w3.org/1999/xlink">
<g id="graph0" class="graph" transform="scale(1 1) rotate(0) translate(4 259.13)">
<polygon fill="white" stroke="none" points="-4,4 -4,-259.13 247.98,-259.13 247.98,4 -4,4"/>
<g id="clust1" class="cluster">
<title>cluster348</title>
<path fill="none" stroke="black" d="M137.98,-8C137.98,-8 223.98,-8 223.98,-8 229.98,-8 235.98,-14 235.98,-20 235.98,-20 235.98,-235.13 235.98,-235.13 235.98,-241.13 229.98,-247.13 223.98,-247.13 223.98,-247.13 137.98,-247.13 137.98,-247.13 131.98,-247.13 125.98,-241.13 125.98,-235.13 125.98,-235.13 125.98,-20 125.98,-20 125.98,-14 131.98,-8 137.98,-8"/>
<text text-anchor="middle" x="217.86" y="-15.2" font-family="Times,serif" font-size="14.00">348</text>
</g>
<!-- σ -->
<g id="node1" class="node">
<title>σ</title>
<ellipse fill="none" stroke="black" cx="57.98" cy="-198.48" rx="57.98" ry="40.66"/>
<text text-anchor="middle" x="57.98" y="-209.93" font-family="Times,serif" font-size="14.00">σ</text>
<text text-anchor="middle" x="57.98" y="-193.43" font-family="Times,serif" font-size="14.00">~</text>
<text text-anchor="middle" x="57.98" y="-176.93" font-family="Times,serif" font-size="14.00">HalfNormal</text>
</g>
<!-- y -->
<g id="node2" class="node">
<title>y</title>
<ellipse fill="lightgrey" stroke="black" cx="177.98" cy="-81.16" rx="41.01" ry="40.66"/>
<text text-anchor="middle" x="177.98" y="-92.61" font-family="Times,serif" font-size="14.00">y</text>
<text text-anchor="middle" x="177.98" y="-76.11" font-family="Times,serif" font-size="14.00">~</text>
<text text-anchor="middle" x="177.98" y="-59.61" font-family="Times,serif" font-size="14.00">Normal</text>
</g>
<!-- σ&#45;&gt;y -->
<g id="edge1" class="edge">
<title>σ&#45;&gt;y</title>
<path fill="none" stroke="black" d="M91.73,-165.05C107.08,-150.3 125.28,-132.8 141,-117.7"/>
<polygon fill="black" stroke="black" points="143.09,-120.55 147.87,-111.09 138.24,-115.5 143.09,-120.55"/>
</g>
<!-- μ -->
<g id="node3" class="node">
<title>μ</title>
<ellipse fill="none" stroke="black" cx="180.98" cy="-198.48" rx="46.85" ry="40.66"/>
<text text-anchor="middle" x="180.98" y="-209.93" font-family="Times,serif" font-size="14.00">μ</text>
<text text-anchor="middle" x="180.98" y="-193.43" font-family="Times,serif" font-size="14.00">~</text>
<text text-anchor="middle" x="180.98" y="-176.93" font-family="Times,serif" font-size="14.00">BART_μ</text>
</g>
<!-- μ&#45;&gt;y -->
<g id="edge2" class="edge">
<title>μ&#45;&gt;y</title>
<path fill="none" stroke="black" d="M179.94,-157.47C179.74,-149.69 179.52,-141.43 179.31,-133.34"/>
<polygon fill="black" stroke="black" points="182.82,-133.52 179.06,-123.61 175.82,-133.7 182.82,-133.52"/>
</g>
</g>
</svg>
