<?xml version="1.0" encoding="UTF-8" standalone="no"?>
<!DOCTYPE svg PUBLIC "-//W3C//DTD SVG 1.1//EN"
 "http://www.w3.org/Graphics/SVG/1.1/DTD/svg11.dtd">
<!-- Generated by graphviz version 9.0.0 (0)
 -->
<!-- Pages: 1 -->
<svg width="256pt" height="470pt"
 viewBox="0.00 0.00 256.00 470.45" xmlns="http://www.w3.org/2000/svg" xmlns:xlink="http://www.w3.org/1999/xlink">
<g id="graph0" class="graph" transform="scale(1 1) rotate(0) translate(4 466.45)">
<polygon fill="white" stroke="none" points="-4,4 -4,-466.45 252,-466.45 252,4 -4,4"/>
<g id="clust1" class="cluster">
<title>cluster3</title>
<path fill="none" stroke="black" d="M20,-231.32C20,-231.32 228,-231.32 228,-231.32 234,-231.32 240,-237.32 240,-243.32 240,-243.32 240,-341.13 240,-341.13 240,-347.13 234,-353.13 228,-353.13 228,-353.13 20,-353.13 20,-353.13 14,-353.13 8,-347.13 8,-341.13 8,-341.13 8,-243.32 8,-243.32 8,-237.32 14,-231.32 20,-231.32"/>
<text text-anchor="middle" x="228.62" y="-238.52" font-family="Times,serif" font-size="14.00">3</text>
</g>
<g id="clust2" class="cluster">
<title>cluster468</title>
<path fill="none" stroke="black" d="M136,-8C136,-8 218,-8 218,-8 224,-8 230,-14 230,-20 230,-20 230,-211.32 230,-211.32 230,-217.32 224,-223.32 218,-223.32 218,-223.32 136,-223.32 136,-223.32 130,-223.32 124,-217.32 124,-211.32 124,-211.32 124,-20 124,-20 124,-14 130,-8 136,-8"/>
<text text-anchor="middle" x="211.88" y="-15.2" font-family="Times,serif" font-size="14.00">468</text>
</g>
<!-- σ_hyperprior -->
<g id="node1" class="node">
<title>σ_hyperprior</title>
<ellipse fill="none" stroke="black" cx="74" cy="-421.79" rx="61.7" ry="40.66"/>
<text text-anchor="middle" x="74" y="-433.24" font-family="Times,serif" font-size="14.00">σ_hyperprior</text>
<text text-anchor="middle" x="74" y="-416.74" font-family="Times,serif" font-size="14.00">~</text>
<text text-anchor="middle" x="74" y="-400.24" font-family="Times,serif" font-size="14.00">HalfNormal</text>
</g>
<!-- σ -->
<g id="node2" class="node">
<title>σ</title>
<ellipse fill="none" stroke="black" cx="74" cy="-304.48" rx="57.98" ry="40.66"/>
<text text-anchor="middle" x="74" y="-315.93" font-family="Times,serif" font-size="14.00">σ</text>
<text text-anchor="middle" x="74" y="-299.43" font-family="Times,serif" font-size="14.00">~</text>
<text text-anchor="middle" x="74" y="-282.93" font-family="Times,serif" font-size="14.00">HalfNormal</text>
</g>
<!-- σ_hyperprior&#45;&gt;σ -->
<g id="edge1" class="edge">
<title>σ_hyperprior&#45;&gt;σ</title>
<path fill="none" stroke="black" d="M74,-380.78C74,-373 74,-364.75 74,-356.66"/>
<polygon fill="black" stroke="black" points="77.5,-356.93 74,-346.93 70.5,-356.93 77.5,-356.93"/>
</g>
<!-- sales -->
<g id="node5" class="node">
<title>sales</title>
<ellipse fill="lightgrey" stroke="black" cx="175" cy="-81.16" rx="41.01" ry="40.66"/>
<text text-anchor="middle" x="175" y="-92.61" font-family="Times,serif" font-size="14.00">sales</text>
<text text-anchor="middle" x="175" y="-76.11" font-family="Times,serif" font-size="14.00">~</text>
<text text-anchor="middle" x="175" y="-59.61" font-family="Times,serif" font-size="14.00">Normal</text>
</g>
<!-- σ&#45;&gt;sales -->
<g id="edge3" class="edge">
<title>σ&#45;&gt;sales</title>
<path fill="none" stroke="black" d="M84.07,-263.97C92.47,-233.98 105.83,-192.19 123,-157.82 128.84,-146.13 136.27,-134.17 143.68,-123.3"/>
<polygon fill="black" stroke="black" points="146.4,-125.52 149.27,-115.32 140.67,-121.5 146.4,-125.52"/>
</g>
<!-- β -->
<g id="node3" class="node">
<title>β</title>
<ellipse fill="none" stroke="black" cx="191" cy="-304.48" rx="41.01" ry="40.66"/>
<text text-anchor="middle" x="191" y="-315.93" font-family="Times,serif" font-size="14.00">β</text>
<text text-anchor="middle" x="191" y="-299.43" font-family="Times,serif" font-size="14.00">~</text>
<text text-anchor="middle" x="191" y="-282.93" font-family="Times,serif" font-size="14.00">Normal</text>
</g>
<!-- μ -->
<g id="node4" class="node">
<title>μ</title>
<polygon fill="none" stroke="black" points="222.12,-215.32 131.88,-215.32 131.88,-157.82 222.12,-157.82 222.12,-215.32"/>
<text text-anchor="middle" x="177" y="-198.02" font-family="Times,serif" font-size="14.00">μ</text>
<text text-anchor="middle" x="177" y="-181.52" font-family="Times,serif" font-size="14.00">~</text>
<text text-anchor="middle" x="177" y="-165.02" font-family="Times,serif" font-size="14.00">Deterministic</text>
</g>
<!-- β&#45;&gt;μ -->
<g id="edge2" class="edge">
<title>β&#45;&gt;μ</title>
<path fill="none" stroke="black" d="M186.22,-263.91C184.78,-252.01 183.21,-238.95 181.77,-227.05"/>
<polygon fill="black" stroke="black" points="185.24,-226.64 180.57,-217.13 178.3,-227.48 185.24,-226.64"/>
</g>
<!-- μ&#45;&gt;sales -->
<g id="edge4" class="edge">
<title>μ&#45;&gt;sales</title>
<path fill="none" stroke="black" d="M176.46,-157.58C176.31,-150.1 176.15,-141.77 175.99,-133.45"/>
<polygon fill="black" stroke="black" points="179.5,-133.64 175.8,-123.71 172.5,-133.78 179.5,-133.64"/>
</g>
</g>
</svg>
