<?xml version="1.0" encoding="UTF-8" standalone="no"?>
<!DOCTYPE svg PUBLIC "-//W3C//DTD SVG 1.1//EN"
 "http://www.w3.org/Graphics/SVG/1.1/DTD/svg11.dtd">
<!-- Generated by graphviz version 9.0.0 (0)
 -->
<!-- Pages: 1 -->
<svg width="248pt" height="385pt"
 viewBox="0.00 0.00 247.98 384.95" xmlns="http://www.w3.org/2000/svg" xmlns:xlink="http://www.w3.org/1999/xlink">
<g id="graph0" class="graph" transform="scale(1 1) rotate(0) translate(4 380.95)">
<polygon fill="white" stroke="none" points="-4,4 -4,-380.95 243.98,-380.95 243.98,4 -4,4"/>
<g id="clust1" class="cluster">
<title>cluster3</title>
<path fill="none" stroke="black" d="M141.98,-247.13C141.98,-247.13 215.98,-247.13 215.98,-247.13 221.98,-247.13 227.98,-253.13 227.98,-259.13 227.98,-259.13 227.98,-356.95 227.98,-356.95 227.98,-362.95 221.98,-368.95 215.98,-368.95 215.98,-368.95 141.98,-368.95 141.98,-368.95 135.98,-368.95 129.98,-362.95 129.98,-356.95 129.98,-356.95 129.98,-259.13 129.98,-259.13 129.98,-253.13 135.98,-247.13 141.98,-247.13"/>
<text text-anchor="middle" x="216.61" y="-254.33" font-family="Times,serif" font-size="14.00">3</text>
</g>
<g id="clust2" class="cluster">
<title>cluster468</title>
<path fill="none" stroke="black" d="M137.98,-8C137.98,-8 219.98,-8 219.98,-8 225.98,-8 231.98,-14 231.98,-20 231.98,-20 231.98,-223.23 231.98,-223.23 231.98,-229.23 225.98,-235.23 219.98,-235.23 219.98,-235.23 137.98,-235.23 137.98,-235.23 131.98,-235.23 125.98,-229.23 125.98,-223.23 125.98,-223.23 125.98,-20 125.98,-20 125.98,-14 131.98,-8 137.98,-8"/>
<text text-anchor="middle" x="213.86" y="-15.2" font-family="Times,serif" font-size="14.00">468</text>
</g>
<!-- σ -->
<g id="node1" class="node">
<title>σ</title>
<ellipse fill="none" stroke="black" cx="57.98" cy="-198.48" rx="57.98" ry="40.66"/>
<text text-anchor="middle" x="57.98" y="-209.93" font-family="Times,serif" font-size="14.00">σ</text>
<text text-anchor="middle" x="57.98" y="-193.43" font-family="Times,serif" font-size="14.00">~</text>
<text text-anchor="middle" x="57.98" y="-176.93" font-family="Times,serif" font-size="14.00">HalfNormal</text>
</g>
<!-- sales -->
<g id="node4" class="node">
<title>sales</title>
<ellipse fill="lightgrey" stroke="black" cx="176.98" cy="-81.16" rx="41.01" ry="40.66"/>
<text text-anchor="middle" x="176.98" y="-92.61" font-family="Times,serif" font-size="14.00">sales</text>
<text text-anchor="middle" x="176.98" y="-76.11" font-family="Times,serif" font-size="14.00">~</text>
<text text-anchor="middle" x="176.98" y="-59.61" font-family="Times,serif" font-size="14.00">Normal</text>
</g>
<!-- σ&#45;&gt;sales -->
<g id="edge2" class="edge">
<title>σ&#45;&gt;sales</title>
<path fill="none" stroke="black" d="M91.45,-165.05C106.55,-150.41 124.44,-133.07 139.95,-118.05"/>
<polygon fill="black" stroke="black" points="141.98,-120.95 146.72,-111.48 137.11,-115.93 141.98,-120.95"/>
</g>
<!-- β -->
<g id="node2" class="node">
<title>β</title>
<ellipse fill="none" stroke="black" cx="178.98" cy="-320.29" rx="41.01" ry="40.66"/>
<text text-anchor="middle" x="178.98" y="-331.74" font-family="Times,serif" font-size="14.00">β</text>
<text text-anchor="middle" x="178.98" y="-315.24" font-family="Times,serif" font-size="14.00">~</text>
<text text-anchor="middle" x="178.98" y="-298.74" font-family="Times,serif" font-size="14.00">Normal</text>
</g>
<!-- μ -->
<g id="node3" class="node">
<title>μ</title>
<polygon fill="none" stroke="black" points="224.11,-227.23 133.86,-227.23 133.86,-169.73 224.11,-169.73 224.11,-227.23"/>
<text text-anchor="middle" x="178.98" y="-209.93" font-family="Times,serif" font-size="14.00">μ</text>
<text text-anchor="middle" x="178.98" y="-193.43" font-family="Times,serif" font-size="14.00">~</text>
<text text-anchor="middle" x="178.98" y="-176.93" font-family="Times,serif" font-size="14.00">Deterministic</text>
</g>
<!-- β&#45;&gt;μ -->
<g id="edge1" class="edge">
<title>β&#45;&gt;μ</title>
<path fill="none" stroke="black" d="M178.98,-279.4C178.98,-266.37 178.98,-251.91 178.98,-238.91"/>
<polygon fill="black" stroke="black" points="182.48,-238.98 178.98,-228.98 175.48,-238.98 182.48,-238.98"/>
</g>
<!-- μ&#45;&gt;sales -->
<g id="edge3" class="edge">
<title>μ&#45;&gt;sales</title>
<path fill="none" stroke="black" d="M178.49,-169.27C178.31,-158.44 178.09,-145.73 177.87,-133.41"/>
<polygon fill="black" stroke="black" points="181.38,-133.72 177.7,-123.78 174.38,-133.84 181.38,-133.72"/>
</g>
</g>
</svg>
